<svg width="95" height="86" viewBox="0 0 95 86" fill="none" xmlns="http://www.w3.org/2000/svg">
<path d="M42.7078 18.0618C43.9326 16.7434 44.212 13.3037 44.3463 11.7994C44.3463 13.3375 44.8889 16.8246 45.8773 18.0618C46.8658 19.2991 50.7838 19.6592 52.3776 19.8873C50.5063 19.8873 46.5196 20.1872 45.8773 21.6368C44.6418 24.4257 44.9193 25.7272 44.6418 27.1386C44.203 25.8878 44.6418 24.5271 42.7078 21.6368C41.5862 19.9605 37.8998 19.7268 35.8584 19.8873C37.5954 19.693 41.483 19.3803 42.7078 18.0618Z" fill="#FFFAFA" stroke="#FFFAFA"/>
<path d="M23.0517 20.8547C23.9266 19.9419 24.1262 17.5606 24.2221 16.5191C24.2221 17.584 24.6096 19.9981 25.3157 20.8547C26.0217 21.7113 28.8203 21.9605 29.9587 22.1185C28.6221 22.1185 25.7744 22.3261 25.3157 23.3296C24.4331 25.2605 24.6314 26.1615 24.4331 27.1386C24.1198 26.2727 24.4331 25.3307 23.0517 23.3296C22.2506 22.1692 19.6174 22.0073 18.1593 22.1185C19.4 21.9839 22.1769 21.7674 23.0517 20.8547Z" fill="#FFFAFA" stroke="#FFFAFA"/>
<path d="M64.3496 20.8547C65.2245 19.9419 65.424 17.5606 65.5199 16.5191C65.5199 17.584 65.9075 19.9981 66.6135 20.8547C67.3196 21.7113 70.1182 21.9605 71.2565 22.1185C69.9199 22.1185 67.0723 22.3261 66.6135 23.3296C65.731 25.2605 65.9292 26.1615 65.731 27.1386C65.4176 26.2727 65.731 25.3307 64.3496 23.3296C63.5485 22.1692 60.9153 22.0073 59.4572 22.1185C60.6978 21.9839 63.4747 21.7674 64.3496 20.8547Z" fill="#FFFAFA" stroke="#FFFAFA"/>
<path d="M44.8645 1.7629C24.403 1.50143 2.33714 20.226 7.53954 29.6499C12.7419 39.0739 75.5359 39.9249 81.6376 30.3295C87.7393 20.734 65.3261 2.02437 44.8645 1.7629Z" stroke="#FFFAFA" stroke-width="3"/>
<path d="M42.7199 83.5222C90.2542 83.5222 89.9691 53.9022 75.1599 58.1334C60.3507 62.3646 23.6795 62.365 12.396 58.1334C1.11248 53.9017 -3.5381 83.5223 42.7199 83.5222Z" stroke="#FFFAFA" stroke-width="3"/>
<path d="M65.3288 57.0993C68.7221 51.033 54.1113 41.583 48.1244 38.1526L75.5037 36.5805C71.86 46.3053 60.6371 65.4866 65.3288 57.0993Z" stroke="#FFFAFA" stroke-width="3"/>
<path d="M0.224 53L1.344 42.556H5.082C7.14 42.556 7.98 43.704 7.98 45.048C7.98 46.042 7.462 46.938 6.566 47.498C7.448 48.016 7.91 48.898 7.91 49.836C7.91 51.53 6.552 53 4.27 53H0.224ZM4.284 44.53H3.598L3.36 46.812H4.018C5.138 46.812 5.698 46.322 5.698 45.552C5.698 44.936 5.362 44.53 4.284 44.53ZM3.976 48.506H3.192L2.926 51.026H3.766C4.928 51.026 5.432 50.438 5.432 49.682C5.432 48.94 4.97 48.506 3.976 48.506ZM9.1385 50.228L9.6985 44.964H12.0085L11.5325 49.528C11.4205 50.704 12.0785 51.166 12.8765 51.166C13.5905 51.166 14.4445 50.606 14.5285 49.668L15.0045 44.964H17.3145L16.4605 53H14.2625L14.3745 52.062C13.8285 52.622 12.8905 53.21 11.7005 53.21C10.0765 53.21 8.9565 52.02 9.1385 50.228ZM21.7952 56.192C20.6752 56.192 19.7932 56.08 18.8552 55.842L19.0932 53.854C20.1432 54.12 20.9412 54.232 21.6972 54.232C23.1252 54.232 24.0912 53.728 24.2732 51.922C24.2732 51.81 24.2872 51.754 24.3012 51.642C23.5592 52.272 22.6212 52.65 21.6972 52.65C19.9612 52.65 18.1692 51.278 18.1692 48.94C18.1692 46.35 20.1432 44.642 22.1732 44.642C23.2372 44.642 24.2872 45.146 24.9732 46.014C25.0432 45.398 25.0852 44.964 25.0852 44.964H27.3112C27.0872 46.98 26.6672 51.236 26.5832 51.838C26.2612 55.016 24.7352 56.192 21.7952 56.192ZM22.5232 50.676C23.6292 50.676 24.6092 49.738 24.6092 48.604C24.6092 47.484 23.7692 46.658 22.7192 46.658C21.6272 46.658 20.5912 47.596 20.5912 48.758C20.5912 49.864 21.4872 50.676 22.5232 50.676ZM31.7855 56.192C30.6655 56.192 29.7835 56.08 28.8455 55.842L29.0835 53.854C30.1335 54.12 30.9315 54.232 31.6875 54.232C33.1155 54.232 34.0815 53.728 34.2635 51.922C34.2635 51.81 34.2775 51.754 34.2915 51.642C33.5495 52.272 32.6115 52.65 31.6875 52.65C29.9515 52.65 28.1595 51.278 28.1595 48.94C28.1595 46.35 30.1335 44.642 32.1635 44.642C33.2275 44.642 34.2775 45.146 34.9635 46.014C35.0335 45.398 35.0755 44.964 35.0755 44.964H37.3015C37.0775 46.98 36.6575 51.236 36.5735 51.838C36.2515 55.016 34.7255 56.192 31.7855 56.192ZM32.5135 50.676C33.6195 50.676 34.5995 49.738 34.5995 48.604C34.5995 47.484 33.7595 46.658 32.7095 46.658C31.6175 46.658 30.5815 47.596 30.5815 48.758C30.5815 49.864 31.4775 50.676 32.5135 50.676ZM43.0078 53.378C40.2218 53.378 38.3038 51.67 38.1358 49.304C37.9538 46.728 39.7738 44.586 42.5458 44.586C44.5618 44.586 45.9898 45.804 46.5918 47.554L46.8438 48.366L41.1178 50.466C41.5098 51.054 42.2098 51.418 43.1758 51.418C44.0438 51.418 44.7998 51.012 45.4158 50.354L46.6898 51.964C45.8078 52.832 44.6738 53.378 43.0078 53.378ZM42.5598 46.588C41.6638 46.588 40.7678 47.344 40.7258 48.884L44.0998 47.638C43.7498 46.938 43.2458 46.588 42.5598 46.588ZM50.6686 44.964L50.4866 46.644C50.8226 46.07 51.7886 44.922 53.0066 44.922H53.2726L52.9646 47.456C52.8806 47.414 52.6706 47.386 52.5306 47.386C51.2986 47.386 50.4166 48.24 50.3606 48.828L49.9266 53H47.6166L48.4706 44.964H50.6686ZM77.4927 44.698C78.7247 44.698 79.8027 45.244 80.4747 46.14L80.5867 44.964H82.8967L82.0427 53H79.8727L79.9707 52.034C79.1867 52.804 78.1227 53.266 76.9467 53.266C74.8047 53.266 73.2647 51.6 73.2647 49.402C73.2647 46.798 75.1827 44.698 77.4927 44.698ZM80.2367 48.842C80.2367 47.596 79.2567 46.7 78.0947 46.7C76.7787 46.7 75.7007 47.792 75.7007 49.108C75.7007 50.368 76.6527 51.264 77.8567 51.264C79.1027 51.264 80.2367 50.214 80.2367 48.842ZM86.6462 44.964L86.5342 45.916C87.0802 45.342 88.0182 44.754 89.2082 44.754C90.7902 44.754 91.9522 45.972 91.7702 47.764L91.2102 53H88.8862L89.3622 48.436C89.4882 47.274 88.8162 46.798 88.0322 46.798C87.3462 46.798 86.5202 47.302 86.3942 48.212L85.8902 53H83.5802L84.4342 44.964H86.6462Z" fill="#FFFAFA"/>
</svg>
