<svg width="62" height="96" viewBox="0 0 62 96" fill="none" xmlns="http://www.w3.org/2000/svg">
<g clip-path="url(#clip0_76_26)">
<path d="M22.6657 60.7886C22.5654 60.6121 22.4311 60.4572 22.2706 60.3328C22.1102 60.2084 21.9267 60.117 21.7308 60.0638C21.5348 60.0106 21.3303 59.9967 21.1289 60.0229C20.9276 60.049 20.7334 60.1148 20.5576 60.2163C20.3818 60.3178 20.2278 60.4531 20.1044 60.6144C19.9811 60.7757 19.8909 60.9598 19.839 61.156C19.7871 61.3523 19.7745 61.557 19.802 61.7581C19.8296 61.9593 19.8966 62.153 19.9993 62.3282C21.2156 64.4349 22.9651 66.1843 25.072 67.4004C27.1789 68.6165 29.5688 69.2565 32.0014 69.2561C34.4341 69.2565 36.824 68.6165 38.9309 67.4004C41.0378 66.1843 42.7873 64.4349 44.0036 62.3282C44.1063 62.153 44.1733 61.9593 44.2009 61.7581C44.2284 61.557 44.2158 61.3523 44.1639 61.156C44.112 60.9598 44.0218 60.7757 43.8985 60.6144C43.7751 60.4531 43.6211 60.3178 43.4453 60.2163C43.2695 60.1148 43.0753 60.049 42.874 60.0229C42.6726 59.9967 42.4681 60.0106 42.2721 60.0638C42.0762 60.117 41.8927 60.2084 41.7323 60.3328C41.5718 60.4572 41.4375 60.6121 41.3372 60.7886C40.3911 62.4273 39.0302 63.788 37.3914 64.7339C35.7526 65.6798 33.8936 66.1775 32.0014 66.177C30.1093 66.1775 28.2503 65.6798 26.6115 64.7339C24.9727 63.788 23.6118 62.4273 22.6657 60.7886ZM28.9224 46.5203V46.1631C28.9224 45.3465 28.598 44.5633 28.0205 43.9859C27.4431 43.4084 26.6599 43.084 25.8433 43.084H17.4683C17.0002 43.084 16.5384 43.1907 16.1178 43.396C15.6971 43.6013 15.3289 43.8998 15.0409 44.2688C14.753 44.6378 14.553 45.0675 14.456 45.5254C14.3591 45.9833 14.3678 46.4573 14.4816 46.9113L15.4392 50.7355C15.7722 52.0677 16.5409 53.2504 17.6232 54.0957C18.7055 54.9409 20.0393 55.4001 21.4125 55.4003H22.7643C24.3119 55.4007 25.803 54.8183 26.9407 53.769C28.0784 52.7197 28.7793 51.2805 28.9039 49.7379C29.9006 49.3972 30.9482 49.2296 32.0014 49.2421C33.2115 49.2421 34.28 49.4392 35.099 49.7379C35.2236 51.2805 35.9245 52.7197 37.0622 53.769C38.1999 54.8183 39.691 55.4007 41.2386 55.4003H42.5873C43.9605 55.4001 45.2943 54.9409 46.3766 54.0957C47.4589 53.2504 48.2276 52.0677 48.5607 50.7355L49.5182 46.9113C49.6319 46.4575 49.6407 45.9838 49.5439 45.5262C49.4472 45.0685 49.2474 44.6389 48.9598 44.27C48.6722 43.9011 48.3044 43.6025 47.8841 43.397C47.4639 43.1915 47.0024 43.0845 46.5346 43.084H38.1596C37.343 43.084 36.5598 43.4084 35.9824 43.9859C35.4049 44.5633 35.0805 45.3465 35.0805 46.1631V46.5203C34.0722 46.2782 33.0384 46.1583 32.0014 46.1631C30.9238 46.1631 29.8769 46.2862 28.9224 46.5203Z" fill="black"/>
<path d="M56.6339 55.4003C56.6339 61.9332 54.0387 68.1986 49.4192 72.8181C44.7997 77.4376 38.5344 80.0328 32.0014 80.0328C25.4685 80.0328 19.2031 77.4376 14.5836 72.8181C9.9641 68.1986 7.3689 61.9332 7.3689 55.4003C7.3689 48.8673 9.9641 42.6019 14.5836 37.9825C19.2031 33.363 25.4685 30.7678 32.0014 30.7678C38.5344 30.7678 44.7997 33.363 49.4192 37.9825C54.0387 42.6019 56.6339 48.8673 56.6339 55.4003ZM53.5549 55.4003C53.5549 49.6839 51.2841 44.2017 47.242 40.1597C43.1999 36.1176 37.7177 33.8468 32.0014 33.8468C26.2851 33.8468 20.8029 36.1176 16.7608 40.1597C12.7188 44.2017 10.448 49.6839 10.448 55.4003C10.448 61.1166 12.7188 66.5988 16.7608 70.6409C20.8029 74.6829 26.2851 76.9537 32.0014 76.9537C37.7177 76.9537 43.1999 74.6829 47.242 70.6409C51.2841 66.5988 53.5549 61.1166 53.5549 55.4003Z" fill="black"/>
<ellipse cx="17.94" cy="57.5943" rx="4.58743" ry="2.09426" fill="black"/>
<ellipse cx="45.8634" cy="57.5943" rx="4.58743" ry="2.09426" fill="black"/>
</g>
<path d="M33 40C25.8 40.4 16.6667 37.8333 13 36.5L8 14.5C12.8333 13 24.6 10 33 10C41.4 10 51.1667 13 55 14.5L50.5 36.5C47.6667 37.5 40.2 39.6 33 40Z" fill="black"/>
<path d="M31.0309 88.7814C31.8739 87.8214 32.0661 85.3167 32.1586 84.2213C32.1586 85.3413 32.532 87.8804 33.2123 88.7814C33.8926 89.6823 36.589 89.9445 37.6859 90.1106C36.398 90.1106 33.6543 90.3289 33.2123 91.3845C32.3619 93.4153 32.5529 94.363 32.3619 95.3907C32.06 94.4799 32.3619 93.4891 31.0309 91.3845C30.259 90.1639 27.7219 89.9937 26.317 90.1106C27.5124 89.9691 30.188 89.7414 31.0309 88.7814Z" fill="black" stroke="black"/>
<path d="M4.99998 17C0.599978 15.8 -0.5 9.99998 4.50012 7.49998C7.18329 6.15843 8.99572 7.43108 11.5001 5.99998C15.0001 3.99997 17.0001 5 20.5001 5.99998C24.0001 6.99997 25.0001 4.99999 28.0001 2.49999C31.0001 -1.34706e-05 36.0001 1.49999 38.5001 3.49999C41.0001 5.49999 44.0001 7.49998 47.5001 5.99998C51.0001 4.49998 56.5001 7.49998 59.0001 9.99998C61.5001 12.5 60.0001 15.5 56.5001 16.5C53.0001 17.5 54.5001 14 51.0001 13C47.5001 12 48.0001 15.5 42.5001 14C37.0001 12.5 36.5001 11 31.0001 9.99998C25.5001 8.99998 24.5001 13 20.5001 14C16.5001 15 14.5001 13.5 11.5001 14C8.50012 14.5 10.5 18.5 4.99998 17Z" fill="black" stroke="black"/>
<defs>
<clipPath id="clip0_76_26">
<rect width="49.265" height="49.265" fill="white" transform="translate(7.3689 30.7678)"/>
</clipPath>
</defs>
</svg>
